<svg width="67" height="69" viewBox="0 0 67 69" fill="none" xmlns="http://www.w3.org/2000/svg">
<mask id="path-1-inside-1_1834_54509" fill="white">
<path d="M40.5794 8.87359C46.8974 10.5665 52.3995 14.4674 56.0882 19.8689C59.7769 25.2704 61.4078 31.815 60.6852 38.3158C59.9627 44.8166 56.9345 50.8433 52.1497 55.303C47.365 59.7628 41.1405 62.3603 34.605 62.6245C28.0695 62.8888 21.6557 60.8023 16.5265 56.7434C11.3974 52.6845 7.89249 46.922 6.64746 40.5007C5.40242 34.0794 6.49966 27.4246 9.74019 21.7429C12.9807 16.0612 18.15 11.7288 24.3107 9.53137L26.847 16.6421C22.3867 18.233 18.6442 21.3696 16.2981 25.4831C13.9519 29.5966 13.1575 34.4147 14.0589 39.0637C14.9603 43.7126 17.4978 47.8847 21.2113 50.8233C24.9248 53.7619 29.5684 55.2725 34.3 55.0812C39.0317 54.8899 43.5382 53.0093 47.0023 49.7805C50.4664 46.5517 52.6588 42.1884 53.1819 37.4818C53.7051 32.7753 52.5243 28.0371 49.8537 24.1264C47.1831 20.2157 43.1996 17.3915 38.6254 16.1658L40.5794 8.87359Z"/>
</mask>
<path d="M40.5794 8.87359C46.8974 10.5665 52.3995 14.4674 56.0882 19.8689C59.7769 25.2704 61.4078 31.815 60.6852 38.3158C59.9627 44.8166 56.9345 50.8433 52.1497 55.303C47.365 59.7628 41.1405 62.3603 34.605 62.6245C28.0695 62.8888 21.6557 60.8023 16.5265 56.7434C11.3974 52.6845 7.89249 46.922 6.64746 40.5007C5.40242 34.0794 6.49966 27.4246 9.74019 21.7429C12.9807 16.0612 18.15 11.7288 24.3107 9.53137L26.847 16.6421C22.3867 18.233 18.6442 21.3696 16.2981 25.4831C13.9519 29.5966 13.1575 34.4147 14.0589 39.0637C14.9603 43.7126 17.4978 47.8847 21.2113 50.8233C24.9248 53.7619 29.5684 55.2725 34.3 55.0812C39.0317 54.8899 43.5382 53.0093 47.0023 49.7805C50.4664 46.5517 52.6588 42.1884 53.1819 37.4818C53.7051 32.7753 52.5243 28.0371 49.8537 24.1264C47.1831 20.2157 43.1996 17.3915 38.6254 16.1658L40.5794 8.87359Z" stroke="black" stroke-width="12" mask="url(#path-1-inside-1_1834_54509)"/>
<path d="M33 0L33 29.5996" stroke="black" stroke-width="8"/>
</svg>
